<?xml version="1.0" encoding="UTF-8"?>
<svg version="1.1" xmlns="http://www.w3.org/2000/svg" width="1000" height="1000">
<path d="M0 0 C1.24964299 -0.00350607 2.49928597 -0.00701215 3.78679693 -0.01062447 C7.24040529 -0.02002552 10.69390738 -0.01710045 14.14752076 -0.01206893 C17.91066729 -0.00878895 21.67379175 -0.01709591 25.43693113 -0.02388728 C32.02763437 -0.03417594 38.61830824 -0.03703304 45.20901871 -0.03497505 C55.01012259 -0.0319221 64.81119403 -0.04025562 74.6122916 -0.0507243 C93.13772091 -0.0700589 111.66313914 -0.07569234 130.18857735 -0.07683842 C144.49736576 -0.07775784 158.80614983 -0.08187628 173.11493683 -0.08823967 C177.23517592 -0.09003479 181.35541502 -0.09181442 185.47565413 -0.09358943 C186.49999219 -0.09403152 187.52433026 -0.09447362 188.57970888 -0.09492911 C217.39034791 -0.10723651 246.20098543 -0.11513035 275.0116272 -0.11424255 C276.64074693 -0.11419582 276.64074693 -0.11419582 278.30277818 -0.11414814 C283.80734807 -0.11398192 289.31191796 -0.11378384 294.81648785 -0.11357872 C296.45629551 -0.11351889 296.45629551 -0.11351889 298.1292306 -0.11345784 C300.33995838 -0.11337697 302.55068617 -0.11329337 304.76141395 -0.11320706 C339.14860471 -0.11198184 373.53575602 -0.12698981 407.92293549 -0.15435219 C446.56749441 -0.18508964 485.21202741 -0.20228365 523.85659933 -0.20042574 C527.97935327 -0.20027649 532.1021072 -0.20017907 536.22486115 -0.20011711 C537.23996736 -0.2000938 538.25507357 -0.20007049 539.30094058 -0.20004648 C555.6198191 -0.19998499 571.9386633 -0.21274387 588.25753162 -0.22998164 C604.66645226 -0.2469557 621.07532282 -0.2488981 637.48424739 -0.235763 C647.22511365 -0.22838548 656.96582755 -0.23199589 666.7066776 -0.25164768 C673.22352752 -0.26368112 679.74026756 -0.26101937 686.25711252 -0.24670668 C689.96354575 -0.23897192 693.66968497 -0.23730928 697.37609702 -0.25362138 C735.82287007 -0.41161317 767.10451107 8.99267035 795.20516205 36.25726891 C815.83085177 56.81195797 829.32455069 86.30186621 829.47488743 115.57795537 C829.47077679 116.72442536 829.46666616 117.87089535 829.46243095 119.05210686 C829.46593703 120.30174984 829.4694431 121.55139283 829.47305542 122.83890378 C829.48245647 126.29251215 829.4795314 129.74601424 829.47449988 133.19962762 C829.47121991 136.96277415 829.47952686 140.72589861 829.48631823 144.48903799 C829.49660689 151.07974123 829.499464 157.67041509 829.49740601 164.26112556 C829.49435305 174.06222945 829.50268658 183.86330089 829.51315526 193.66439845 C829.53248985 212.18982776 829.53812329 230.715246 829.53926937 249.24068421 C829.5401888 263.54947262 829.54430724 277.85825669 829.55067062 292.16704369 C829.55246574 296.28728278 829.55424537 300.40752188 829.55602038 304.52776098 C829.55668352 306.06426809 829.55668352 306.06426809 829.55736006 307.63181574 C829.56966747 336.44245476 829.5775613 365.25309228 829.57667351 394.06373405 C829.57664235 395.14981388 829.57661119 396.2358937 829.57657909 397.35488504 C829.57641288 402.85945493 829.5762148 408.36402482 829.57600968 413.86859471 C829.57594984 415.50840237 829.57594984 415.50840237 829.5758888 417.18133745 C829.57580792 419.39206524 829.57572433 421.60279303 829.57563801 423.81352081 C829.57441279 458.20071157 829.58942077 492.58786287 829.61678314 526.97504234 C829.64752059 565.61960127 829.66471461 604.26413427 829.6628567 642.90870619 C829.66270744 647.03146013 829.66261002 651.15421406 829.66254807 655.276968 C829.6625131 656.79962732 829.6625131 656.79962732 829.66247743 658.35304743 C829.66241595 674.67192595 829.67517482 690.99077015 829.69241259 707.30963848 C829.70938665 723.71855911 829.71132906 740.12742968 829.69819395 756.53635424 C829.69081643 766.27722051 829.69442685 776.01793441 829.71407863 785.75878445 C829.72611208 792.27563438 829.72345032 798.79237441 829.70913764 805.30921938 C829.70140287 809.0156526 829.69974024 812.72179183 829.71605234 816.42820388 C829.87404412 854.87497693 820.4697606 886.15661793 793.20516205 914.25726891 C772.65047298 934.88295863 743.16056475 948.37665754 713.88447559 948.52699429 C712.7380056 948.52288365 711.5915356 948.51877301 710.4103241 948.51453781 C709.16068111 948.51804389 707.91103812 948.52154996 706.62352717 948.52516228 C703.16991881 948.53456333 699.71641672 948.53163826 696.26280334 948.52660674 C692.4996568 948.52332676 688.73653235 948.53163372 684.97339296 948.53842509 C678.38268973 948.54871375 671.79201586 948.55157085 665.20130539 948.54951286 C655.40020151 948.54645991 645.59913007 948.55479343 635.7980325 948.56526211 C617.27260319 948.58459671 598.74718495 948.59023015 580.22174674 948.59137623 C565.91295833 948.59229565 551.60417427 948.59641409 537.29538727 948.60277748 C533.17514817 948.6045726 529.05490907 948.60635223 524.93466997 948.60812724 C523.9103319 948.60856933 522.88599383 948.60901143 521.83061522 948.60946692 C493.01997619 948.62177433 464.20933867 948.62966816 435.3986969 948.62878036 C434.31261707 948.62874921 433.22653725 948.62871805 432.10754592 948.62868595 C426.60297603 948.62851974 421.09840614 948.62832165 415.59383625 948.62811653 C414.50063114 948.62807664 413.40742603 948.62803675 412.2810935 948.62799565 C410.07036571 948.62791478 407.85963793 948.62783118 405.64891014 948.62774487 C371.26171938 948.62651965 336.87456808 948.64152762 302.48738861 948.66889 C263.84282969 948.69962745 225.19829669 948.71682147 186.55372477 948.71496356 C182.43097083 948.7148143 178.30821689 948.71471688 174.18546295 948.71465492 C173.17035674 948.71463161 172.15525053 948.71460831 171.10938352 948.71458429 C154.790505 948.71452281 138.4716608 948.72728168 122.15279248 948.74451945 C105.74387184 948.76149351 89.33500128 948.76343591 72.92607671 948.75030081 C63.18521045 948.74292329 53.44449655 948.7465337 43.7036465 948.76618549 C37.18679657 948.77821894 30.67005654 948.77555718 24.15321157 948.76124449 C20.44677835 948.75350973 16.74063912 948.7518471 13.03422707 948.7681592 C-25.41254598 948.92615098 -56.69418697 939.52186746 -84.79483795 912.25726891 C-105.42052767 891.70257984 -118.91422659 862.21267161 -119.06456333 832.93658245 C-119.0604527 831.79011245 -119.05634206 830.64364246 -119.05210686 829.46243095 C-119.05561293 828.21278797 -119.05911901 826.96314498 -119.06273133 825.67563403 C-119.07213238 822.22202566 -119.06920731 818.76852358 -119.06417578 815.3149102 C-119.06089581 811.55176366 -119.06920276 807.7886392 -119.07599413 804.02549982 C-119.08628279 797.43479659 -119.0891399 790.84412272 -119.08708191 784.25341225 C-119.08402895 774.45230837 -119.09236248 764.65123693 -119.10283116 754.85013936 C-119.12216575 736.32471005 -119.1277992 717.79929181 -119.12894528 699.2738536 C-119.1298647 684.96506519 -119.13398314 670.65628112 -119.14034653 656.34749413 C-119.14214165 652.22725503 -119.14392128 648.10701593 -119.14569628 643.98677683 C-119.14613838 642.96243876 -119.14658047 641.93810069 -119.14703597 640.88272207 C-119.15934337 612.07208305 -119.16723721 583.26144553 -119.16634941 554.45080376 C-119.16631825 553.36472393 -119.1662871 552.27864411 -119.16625499 551.15965277 C-119.16608878 545.65508288 -119.1658907 540.15051299 -119.16568558 534.64594311 C-119.16564569 533.552738 -119.1656058 532.45953289 -119.1655647 531.33320036 C-119.16548382 529.12247257 -119.16540023 526.91174479 -119.16531392 524.701017 C-119.1640887 490.31382624 -119.17909667 455.92667494 -119.20645905 421.53949547 C-119.23719649 382.89493654 -119.25439051 344.25040354 -119.2525326 305.60583162 C-119.25238334 301.48307769 -119.25228593 297.36032375 -119.25222397 293.23756981 C-119.25220066 292.2224636 -119.25217735 291.20735738 -119.25215334 290.16149038 C-119.25209185 273.84261186 -119.26485073 257.52376766 -119.2820885 241.20489933 C-119.29906256 224.7959787 -119.30100496 208.38710814 -119.28786986 191.97818357 C-119.28049234 182.2373173 -119.28410275 172.4966034 -119.30375454 162.75575336 C-119.31578798 156.23890343 -119.31312622 149.7221634 -119.29881354 143.20531843 C-119.29107877 139.49888521 -119.28941614 135.79274598 -119.30572824 132.08633393 C-119.46372002 93.63956088 -110.05943651 62.35791989 -82.79483795 34.25726891 C-61.01381708 12.40101135 -30.77697641 -0.11035002 0 0 Z " fill="#1BA8A0" transform="translate(144.79483795166016,25.74273109436035)"/>
<path d="M0 0 C3.40259495 0.00314004 6.80430008 -0.02031584 10.20678711 -0.0456543 C38.22356679 -0.12619062 67.72262171 2.65753143 94.50170898 11.31567383 C95.69795898 11.67274414 96.89420898 12.02981445 98.12670898 12.39770508 C118.14557454 18.38444042 139.78105877 25.01296534 157.50170898 36.31567383 C156.89863736 39.6265815 156.1004299 42.70607374 154.95800781 45.87011719 C154.64242416 46.74940384 154.32684052 47.62869049 154.00169373 48.53462219 C153.65751907 49.48201767 153.31334442 50.42941315 152.95874023 51.40551758 C152.59808975 52.40661057 152.23743927 53.40770355 151.86585999 54.43913269 C150.68560095 57.71180149 149.50005734 60.98252659 148.31420898 64.25317383 C147.50105019 66.5036005 146.68806308 68.75408922 145.87524414 71.00463867 C138.83637458 90.47316261 131.70081127 109.9058812 124.50170898 129.31567383 C119.58418552 128.59984269 115.76579574 127.12748589 111.37670898 124.87817383 C94.742254 116.71759028 76.57742573 110.39651293 58.50170898 106.31567383 C57.70635742 106.1171582 56.91100586 105.91864258 56.09155273 105.71411133 C41.25615901 102.30426097 25.95650435 102.11440367 10.81420898 102.06567383 C9.71920578 102.05790924 9.71920578 102.05790924 8.6020813 102.04998779 C-13.61579177 101.92587779 -40.83825842 103.19330722 -58.06079102 119.12817383 C-66.94136494 128.97857489 -69.07108155 140.57336282 -68.87719727 153.46020508 C-67.94121809 162.98403441 -63.8480019 171.25540006 -57.49829102 178.31567383 C-56.93625977 178.96922852 -56.37422852 179.6227832 -55.79516602 180.29614258 C-50.23499516 186.33523572 -43.62690656 190.35576922 -36.49829102 194.31567383 C-34.8624707 195.23606445 -34.8624707 195.23606445 -33.19360352 196.17504883 C-15.83143035 205.53949336 3.39282102 211.7574348 21.90405273 218.46630859 C64.39687101 233.86884051 109.44022698 250.40535763 142.50170898 282.31567383 C143.36538086 283.11618164 144.22905273 283.91668945 145.11889648 284.74145508 C170.94757248 309.32295202 181.81480126 344.68526819 182.79214478 379.54840088 C182.86945729 383.67951268 182.88652925 387.80892213 182.87670898 391.94067383 C182.87589325 393.24479218 182.87589325 393.24479218 182.87506104 394.57525635 C182.76460466 433.15457663 171.79266798 468.38632982 144.50170898 496.31567383 C143.78499023 497.09426758 143.06827148 497.87286133 142.32983398 498.67504883 C125.67025501 516.33670774 103.8653576 526.00298281 81.50170898 534.31567383 C80.37611572 534.73574707 80.37611572 534.73574707 79.2277832 535.16430664 C30.1848702 553.03987395 -33.4341707 553.18355944 -84.49829102 545.31567383 C-85.34697754 545.18757324 -86.19566406 545.05947266 -87.07006836 544.92749023 C-91.90734802 544.17733436 -96.70010684 543.28346044 -101.49829102 542.31567383 C-102.69196289 542.09137695 -103.88563477 541.86708008 -105.11547852 541.63598633 C-108.91999181 540.90781067 -112.70993787 540.12252753 -116.49829102 539.31567383 C-117.22870605 539.16437012 -117.95912109 539.01306641 -118.71166992 538.85717773 C-146.44833384 533.03404274 -175.62308837 523.88767368 -199.49829102 508.31567383 C-197.49421463 500.53788483 -195.09176053 492.97858346 -192.40063477 485.41333008 C-192.00977188 484.30446442 -191.618909 483.19559875 -191.21620178 482.0531311 C-189.96021399 478.49332935 -188.69847573 474.93560515 -187.43579102 471.37817383 C-186.57170464 468.93853113 -185.70777269 466.49883373 -184.84399414 464.05908203 C-183.56603669 460.45020601 -182.2875772 456.84151348 -181.00717163 453.23350525 C-178.68605949 446.68950528 -176.38926198 440.13810741 -174.12719727 433.57348633 C-173.66479538 432.24123224 -173.20201032 430.90911106 -172.73876953 429.57714844 C-171.93477003 427.26072477 -171.13914798 424.94136963 -170.35351562 422.61865234 C-170.0094165 421.63566162 -169.66531738 420.6526709 -169.31079102 419.63989258 C-169.02848633 418.81577881 -168.74618164 417.99166504 -168.45532227 417.14257812 C-167.49829102 415.31567383 -167.49829102 415.31567383 -164.49829102 414.31567383 C-162.62670898 414.97729492 -162.62670898 414.97729492 -160.49047852 416.08911133 C-159.68151123 416.49742187 -158.87254395 416.90573242 -158.0390625 417.32641602 C-157.15935791 417.77662109 -156.27965332 418.22682617 -155.37329102 418.69067383 C-125.84510616 433.26014574 -94.11487757 441.70034134 -61.49829102 445.31567383 C-60.63171875 445.41428711 -59.76514648 445.51290039 -58.87231445 445.61450195 C-49.56544773 446.53623653 -40.23652156 446.53694264 -30.89282227 446.5559082 C-28.03184323 446.56556063 -25.17160088 446.59664975 -22.31079102 446.62817383 C1.59822727 446.76687202 27.0615129 443.75454789 46.81420898 429.00317383 C56.80004257 419.01734024 59.88790212 407.70329345 60.06420898 393.87817383 C59.96765778 380.33496869 56.73929698 370.49915863 47.50170898 360.31567383 C46.7534082 359.43008789 46.7534082 359.43008789 45.98999023 358.52661133 C36.68197865 348.25731895 22.85186483 342.10925175 10.50170898 336.31567383 C9.83252441 335.99775879 9.16333984 335.67984375 8.47387695 335.35229492 C-7.3960133 327.86018626 -23.94893656 322.05461621 -40.47290039 316.19247437 C-93.57867243 297.34262505 -151.50886451 274.5586013 -177.76245117 220.61010742 C-191.63318027 190.42605125 -195.51510982 153.74602962 -187.49829102 121.31567383 C-187.20825195 120.12409668 -187.20825195 120.12409668 -186.91235352 118.90844727 C-180.65501348 94.12049685 -168.52077094 73.19796947 -151.49829102 54.31567383 C-150.84473633 53.58993164 -150.19118164 52.86418945 -149.51782227 52.11645508 C-121.47489444 22.63849469 -78.94102432 7.563672 -39.49829102 2.31567383 C-38.37318115 2.14720947 -37.24807129 1.97874512 -36.08886719 1.80517578 C-24.0754393 0.10857351 -12.11752555 -0.02326151 0 0 Z " fill="#FEFEFE" transform="translate(297.498291015625,199.684326171875)"/>
<path d="M0 0 C39.27 0 78.54 0 119 0 C119 139.92 119 279.84 119 424 C195.56 424 272.12 424 351 424 C351 457.33 351 490.66 351 525 C235.17 525 119.34 525 0 525 C0 351.75 0 178.5 0 0 Z " fill="#FEFEFE" transform="translate(563,212)"/>
</svg>
